name D:\school\WTK\thesis\model\3dpredictsim\Results\MidTarsalJoint\Fal_s1_bCst_PF_Gefen2002_ls150_MT_k300_MTP_T5_ig23.mot
datacolumns 128
datarows 4
range 0.56786839 0.60194049
endheader
time	pelvis_tilt	pelvis_list	pelvis_rotation	pelvis_tx	pelvis_ty	pelvis_tz	hip_flexion_l	hip_adduction_l	hip_rotation_l	hip_flexion_r	hip_adduction_r	hip_rotation_r	knee_angle_l	knee_angle_r	ankle_angle_l	ankle_angle_r	subtalar_angle_l	subtalar_angle_r	mtj_angle_l	mtj_angle_r	mtp_angle_l	mtp_angle_r	lumbar_extension	lumbar_bending	lumbar_rotation	arm_flex_l	arm_add_l	arm_rot_l	arm_flex_r	arm_add_r	arm_rot_r	elbow_flex_l	elbow_flex_r	pro_sup_l	pro_sup_r	glut_med1_l/activation	glut_med2_l/activation	glut_med3_l/activation	glut_min1_l/activation	glut_min2_l/activation	glut_min3_l/activation	semimem_l/activation	semiten_l/activation	bifemlh_l/activation	bifemsh_l/activation	sar_l/activation	add_long_l/activation	add_brev_l/activation	add_mag1_l/activation	add_mag2_l/activation	add_mag3_l/activation	tfl_l/activation	pect_l/activation	grac_l/activation	glut_max1_l/activation	glut_max2_l/activation	glut_max3_l/activation	iliacus_l/activation	psoas_l/activation	quad_fem_l/activation	gem_l/activation	peri_l/activation	rect_fem_l/activation	vas_med_l/activation	vas_int_l/activation	vas_lat_l/activation	med_gas_l/activation	lat_gas_l/activation	soleus_l/activation	tib_post_l/activation	flex_dig_l/activation	flex_hal_l/activation	tib_ant_l/activation	per_brev_l/activation	per_long_l/activation	per_tert_l/activation	ext_dig_l/activation	ext_hal_l/activation	ercspn_l/activation	intobl_l/activation	extobl_l/activation	glut_med1_r/activation	glut_med2_r/activation	glut_med3_r/activation	glut_min1_r/activation	glut_min2_r/activation	glut_min3_r/activation	semimem_r/activation	semiten_r/activation	bifemlh_r/activation	bifemsh_r/activation	sar_r/activation	add_long_r/activation	add_brev_r/activation	add_mag1_r/activation	add_mag2_r/activation	add_mag3_r/activation	tfl_r/activation	pect_r/activation	grac_r/activation	glut_max1_r/activation	glut_max2_r/activation	glut_max3_r/activation	iliacus_r/activation	psoas_r/activation	quad_fem_r/activation	gem_r/activation	peri_r/activation	rect_fem_r/activation	vas_med_r/activation	vas_int_r/activation	vas_lat_r/activation	med_gas_r/activation	lat_gas_r/activation	soleus_r/activation	tib_post_r/activation	flex_dig_r/activation	flex_hal_r/activation	tib_ant_r/activation	per_brev_r/activation	per_long_r/activation	per_tert_r/activation	ext_dig_r/activation	ext_hal_r/activation	ercspn_r/activation	intobl_r/activation	extobl_r/activation	
          0.56786839	         -2.92989095	          2.16366872	         -5.35353710	          0.70983548	          0.91895744	          0.00260476	         29.71370763	          3.26850733	         -2.47375415	        -16.62177490	         -0.95745231	          7.04251347	        -11.24529681	         -7.23428904	          5.92944490	         -4.59205558	         -4.48048721	          7.86068199	          0.30262495	          7.85898542	         -0.04200531	         20.75453181	         -1.99517121	         -0.30873850	          2.01938094	         -4.63016757	        -13.45980197	          8.32847599	          5.82934598	        -13.45050138	         17.18002072	         15.31041925	         33.26977715	         86.51662706	         86.51662706	          0.05000017	          0.05000014	          0.05946446	          0.05000003	          0.05000005	          0.05000044	          0.22640102	          0.05946461	          0.08185911	          0.05000022	          0.05000016	          0.08618026	          0.17055839	          0.19665881	          0.15665855	          0.10308639	          0.05946454	          0.05000091	          0.11958475	          0.05946475	          0.05973349	          0.10487641	          0.05000002	          0.05000004	          0.20669662	          0.05000048	          0.05000014	          0.05000003	          0.05924582	          0.06013315	          0.05033151	          0.05946446	          0.05946446	          0.05946446	          0.05125689	          0.05000036	          0.05000267	          0.44404663	          0.28694159	          0.18036741	          0.07411353	          0.43618847	          0.09820414	          0.05946448	          0.13955114	          0.11707298	          0.31923061	          0.10247380	          0.07253243	          0.31263225	          0.21101829	          0.11895411	          0.05000026	          0.05000005	          0.05000004	          0.05852603	          0.10675114	          0.05000001	          0.05000002	          0.05000003	          0.05000013	          0.05000009	          0.34152954	          0.05000010	          0.05000009	          0.05005409	          0.05000198	          0.05000034	          0.41165277	          0.64336160	          0.05000006	          0.05000044	          0.06438756	          0.25598454	          0.05822905	          0.05000451	          0.05000226	          0.28857482	          0.40516757	          0.33835896	          0.29957334	          0.29387793	          0.38106130	          0.05000001	          0.05000079	          0.08573946	          0.05000008	          0.05000002	          0.05000010	          0.05000000	          0.05000000	          0.05000000	
          0.57922575	         -2.92939476	          2.26564715	         -5.66458568	          0.72684131	          0.91795220	          0.00239127	         29.16791900	          3.65106725	         -2.29279355	        -16.61839441	         -1.28657391	          6.82945904	        -11.36074703	         -8.92034451	          5.23826459	         -5.02601906	         -4.87677386	          8.89497281	          0.24838529	          6.99272653	         -0.03075828	         22.53117311	         -1.80187981	         -0.50904036	          2.09413951	         -5.53021620	        -13.45271365	          8.12790456	          5.58540218	        -13.45772958	         17.50484156	         14.92050966	         34.47236138	         86.51662706	         86.51662706	          0.05506513	          0.05000023	          0.05000003	          0.05946456	          0.05946441	          0.05000016	          0.19036666	          0.05000014	          0.06883028	          0.05000010	          0.05000047	          0.11896195	          0.24401972	          0.22288245	          0.15353284	          0.09457299	          0.05000010	          0.07072063	          0.10055162	          0.05000029	          0.05022622	          0.11285647	          0.07072028	          0.06885157	          0.54853027	          0.18109920	          0.15170035	          0.08410706	          0.18949489	          0.18807217	          0.16236654	          0.05000000	          0.05000001	          0.05000000	          0.05000005	          0.05000038	          0.05000025	          0.50265565	          0.24127159	          0.18285226	          0.19043585	          0.46509309	          0.18261708	          0.05000001	          0.11733994	          0.09843944	          0.26842134	          0.08616389	          0.06098805	          0.26287318	          0.17743226	          0.10002118	          0.05000090	          0.05000021	          0.05000028	          0.05000011	          0.08976050	          0.09762622	          0.08043898	          0.05002539	          0.05000191	          0.05003789	          0.28717113	          0.06260519	          0.05000113	          0.05000073	          0.05000054	          0.05000054	          0.34613340	          0.55270533	          0.05000016	          0.05000138	          0.05946439	          0.21524159	          0.05000043	          0.15006100	          0.13645356	          0.24264473	          0.34068040	          0.31016280	          0.27105474	          0.24710416	          0.32041261	          0.05000001	          0.05000020	          0.07404933	          0.05000007	          0.05000001	          0.05000009	          0.05000000	          0.07160800	          0.05607818	
          0.59058312	         -2.92496844	          2.36727890	         -5.94486722	          0.74421401	          0.91698278	          0.00219251	         28.49290990	          3.96423666	         -2.04755417	        -16.56589506	         -1.61529600	          6.60754308	        -11.85536507	        -10.68492314	          4.56729453	         -5.55467368	         -5.27839243	          9.90078147	          0.06232735	          5.91395398	         -0.05622342	         24.39013625	         -1.58379733	         -0.71962513	          2.15881519	         -6.47251958	        -13.45114541	          7.95672449	          5.24831093	        -13.46424602	         17.74714559	         14.59911974	         35.66314691	         86.51662706	         86.51662706	          0.22707021	          0.05000003	          0.16999699	          0.05000009	          0.05000004	          0.05000012	          0.17743961	          0.08629930	          0.07933764	          0.05000003	          0.05000033	          0.10002778	          0.20518116	          0.18740815	          0.12909638	          0.10497637	          0.05000024	          0.05946519	          0.08454886	          0.05000022	          0.05000165	          0.09489408	          0.05946445	          0.05946420	          0.46122521	          0.15227515	          0.12755557	          0.07072043	          0.15933455	          0.15813828	          0.13652400	          0.05754644	          0.05946422	          0.05709251	          0.05000020	          0.05000025	          0.05000028	          0.42265208	          0.27789223	          0.15533782	          0.16012575	          0.54180908	          0.27817194	          0.05000000	          0.12390494	          0.08277164	          0.32968070	          0.07244990	          0.05128110	          0.22103387	          0.14919185	          0.08410164	          0.05000096	          0.05000034	          0.05000020	          0.05000006	          0.07547413	          0.12855703	          0.07394635	          0.05946475	          0.05946473	          0.05946459	          0.24146471	          0.07911379	          0.05736409	          0.05000207	          0.05000272	          0.05946427	          0.29109609	          0.55234786	          0.05758383	          0.05000048	          0.05000004	          0.18098336	          0.13575357	          0.12617731	          0.11473562	          0.20402496	          0.28645710	          0.26079673	          0.22791322	          0.20777468	          0.26941523	          0.05000000	          0.05000008	          0.10579470	          0.05000003	          0.05000001	          0.05000005	          0.05000009	          0.06021074	          0.05946454	
          0.60194049	         -2.91813257	          2.46924113	         -6.18788972	          0.76179753	          0.91607770	          0.00199238	         27.69505869	          4.22163515	         -1.79319182	        -16.44019957	         -1.93983981	          6.38396811	        -12.31358595	        -12.54926011	          3.90146415	         -6.19708242	         -5.68691011	         10.85821435	          0.10960422	          4.65865550	         -0.08045804	         26.26643684	         -1.35675764	         -0.94099052	          2.21395863	         -7.41963447	        -13.45512761	          7.82866555	          4.83924254	        -13.47253870	         17.91668858	         14.32634952	         36.83529691	         86.51662706	         86.51662706	          0.29978668	          0.26159038	          0.31101232	          0.16671410	          0.20144677	          0.17280693	          0.14919801	          0.07256389	          0.06671014	          0.08410726	          0.05000596	          0.08410719	          0.17252417	          0.15757998	          0.10854924	          0.12818928	          0.05000021	          0.05000076	          0.07111336	          0.18854148	          0.14315888	          0.10106526	          0.05000003	          0.05000003	          0.38781580	          0.12803881	          0.13325123	          0.05946445	          0.13397462	          0.13296876	          0.11479463	          0.05000008	          0.05000021	          0.05000000	          0.05000001	          0.05000007	          0.05000009	          0.55255545	          0.32830323	          0.17639750	          0.50283879	          0.50711098	          0.23389764	          0.07122031	          0.10418417	          0.06959756	          0.30362325	          0.06091865	          0.05000002	          0.37135179	          0.12544624	          0.07071589	          0.05000056	          0.05000005	          0.05000004	          0.05000014	          0.07072044	          0.10809578	          0.06217694	          0.05000029	          0.05000038	          0.05000022	          0.25461071	          0.06652224	          0.05000016	          0.05000047	          0.05000024	          0.05000015	          0.24476529	          0.52296161	          0.05000002	          0.05000019	          0.05000012	          0.15217773	          0.11414713	          0.10609504	          0.13738023	          0.17155198	          0.24086408	          0.21928786	          0.19163815	          0.17470493	          0.22653464	          0.05779840	          0.09239976	          0.11423113	          0.05000026	          0.09811862	          0.05000028	          0.06096887	          0.05062749	          0.05000006	
